Coordinates
version=1
nRows=5
nColumns=63
inDegrees=yes

Units are S.I. units (second, meters, Newtons, ...)
If the header above contains a line with 'inDegrees', this indicates whether rotational values are in degrees (yes) or radians (no).

endheader
time	pelvis_tilt	pelvis_list	pelvis_rotation	pelvis_tx	pelvis_ty	pelvis_tz	hip_flexion_r	hip_adduction_r	hip_rotation_r	knee_angle_r	knee_angle_r_beta	ankle_angle_r	subtalar_angle_r	mtp_angle_r	hip_flexion_l	hip_adduction_l	hip_rotation_l	knee_angle_l	knee_angle_l_beta	ankle_angle_l	subtalar_angle_l	mtp_angle_l	L5_S1_Flex_Ext	L5_S1_Lat_Bending	L5_S1_axial_rotation	L4_L5_Flex_Ext	L4_L5_Lat_Bending	L4_L5_axial_rotation	L3_L4_Flex_Ext	L3_L4_Lat_Bending	L3_L4_axial_rotation	L2_L3_Flex_Ext	L2_L3_Lat_Bending	L2_L3_axial_rotation	L1_L2_Flex_Ext	L1_L2_Lat_Bending	L1_L2_axial_rotation	L1_T12_Flex_Ext	L1_T12_Lat_Bending	L1_T12_axial_rotation	Abs_r3	Abs_r2	Abs_r1	Abs_t1	Abs_t2	neck_flexion	neck_bending	neck_rotation	arm_flex_r	arm_add_r	arm_rot_r	elbow_flex_r	pro_sup_r	wrist_flex_r	wrist_dev_r	arm_flex_l	arm_add_l	arm_rot_l	elbow_flex_l	pro_sup_l	wrist_flex_l	wrist_dev_l
      0.00000000	     -0.33833687	     -3.95979920	     86.01347495	      0.18395772	      0.95823917	      0.52629371	      9.81888294	      0.07925815	    -12.74647668	      8.08408505	      0.14109390	     26.38691553	      9.69317305	      0.00000000	      8.89729089	     -1.31691281	     -1.56267978	      3.39471644	      0.05924898	     26.87695485	      6.55467425	      0.00000000	      0.05318840	     -0.14497241	      1.52812969	      0.09877618	     -0.19281331	      1.62363780	      0.08738323	     -0.35248593	      1.62363780	      0.06078903	     -0.35248593	      1.33711348	      0.04939075	     -0.29562775	      1.24160538	      0.03039185	     -0.22456227	      1.14609727	      0.37991945	     -1.63995695	      8.49899891	      0.00000000	      0.00000000	     12.58194569	      1.24836277	     -6.81605596	      6.92372018	    -14.04958554	     46.76731930	     59.69159342	     59.29919730	     -8.12908722	      5.37355684	     16.77879969	    -12.81870108	     67.34840259	     59.60244688	     57.05032219	    -16.00960600	     -2.81575437
      0.01694915	     -0.13496030	     -4.02192647	     85.81032369	      0.18414418	      0.95849034	      0.52619500	      9.68299882	      0.34698787	    -12.76512974	      7.77186723	      0.13564467	     26.03846189	      9.73896962	      0.00000000	      9.06748585	     -1.61457284	     -2.59164837	      3.87780018	      0.06768038	     25.16086811	      5.98994794	      0.00000000	      0.06251868	     -0.11264613	      1.43076523	      0.11610344	     -0.14981935	      1.52018806	      0.10271194	     -0.27388780	      1.52018806	      0.07145260	     -0.27388780	      1.25191958	      0.05805485	     -0.22970799	      1.16249675	      0.03572317	     -0.17448885	      1.07307392	      0.44656467	     -1.27427554	      7.95748700	      0.00000000	      0.00000000	     12.71469625	      0.99921529	     -6.41646145	      7.11237797	    -13.72154252	     46.14022579	     59.62650941	     59.03668102	     -8.01294666	      5.03652491	     17.12660930	    -12.98595996	     67.37565795	     59.58088484	     57.31086680	    -16.30742466	     -2.99035988
      0.03389831	     -0.21896558	     -4.08137016	     85.42336767	      0.18483489	      0.95883452	      0.52573615	      9.39594363	      0.42763846	    -12.10966309	      7.06283416	      0.12326971	     25.14006519	      9.24168031	      0.00000000	      9.18746406	     -1.61125479	     -3.21380631	      4.16998095	      0.07277990	     24.25375157	      5.18126877	      0.00000000	      0.07536231	     -0.10880979	      1.38933699	      0.13995535	     -0.14471702	      1.47617055	      0.12381275	     -0.26456011	      1.47617055	      0.08613159	     -0.26456011	      1.21566987	      0.06998145	     -0.22188492	      1.12883631	      0.04306203	     -0.16854636	      1.04200274	      0.53830548	     -1.23087806	      7.72707555	      0.00000000	      0.00000000	     12.96110738	      1.00650012	     -4.72427748	      6.96632142	    -12.86492218	     44.84979556	     58.57135037	     55.84982372	     -4.94367727	      3.74555040	     17.47063870	    -13.12575826	     68.00142101	     59.54508644	     58.37142246	    -19.35953419	     -3.88286305
      0.05084746	     -0.20226368	     -4.11573493	     85.24748664	      0.18496536	      0.95914054	      0.52560087	      9.32649686	      0.47731632	    -12.14431704	      6.94928906	      0.12128797	     24.64855216	      9.22574913	      0.00000000	      9.31397727	     -1.65808823	     -3.57460599	      4.32896234	      0.07555465	     23.70103866	      4.94774801	      0.00000000	      0.07699333	     -0.10137686	      1.35210239	      0.14298432	     -0.13483123	      1.43660879	      0.12649235	     -0.24648770	      1.43660879	      0.08799568	     -0.24648770	      1.18308959	      0.07149601	     -0.20672770	      1.09858319	      0.04399399	     -0.15703276	      1.01407679	      0.54995568	     -1.14679535	      7.51998786	      0.00000000	      0.00000000	     13.15762707	      0.85365815	     -4.48924450	      7.08449210	    -12.34705163	     44.42364868	     58.09261805	     55.66331830	     -5.04582721	      3.76175178	     17.68295877	    -13.13076313	     67.83325738	     59.40635252	     58.08708387	    -19.53469286	     -3.78264071
      0.06779661	     -0.37865156	     -4.13093162	     85.10116189	      0.18537209	      0.95919222	      0.52510487	      9.18859982	      0.39522990	    -11.30019565	      6.72184755	      0.11731837	     24.10046022	      8.13609515	      0.00000000	      9.38352270	     -1.48498986	     -3.30955869	      4.35478773	      0.07600538	     23.61739342	      4.32452461	      0.00000000	      0.08016858	     -0.12081049	      1.36069112	      0.14888107	     -0.16067795	      1.44573432	      0.13170896	     -0.29373862	      1.44573432	      0.09162467	     -0.29373862	      1.19060473	      0.07444454	     -0.24635674	      1.10556154	      0.04580833	     -0.18713544	      1.02051834	      0.57263615	     -1.36663238	      7.56775581	      0.00000000	      0.00000000	     13.35701532	      0.97096186	     -3.99189403	      6.58323272	    -11.49946353	     42.48222662	     57.70071555	     56.48004922	     -3.96921016	      5.00593400	     18.50932981	    -13.30114468	     70.26549634	     59.91994069	     49.41107427	    -22.63687863	     -6.47836667
